<svg width="64" height="31" viewBox="0 0 64 31" fill="none" xmlns="http://www.w3.org/2000/svg">
<path d="M9.54545 4.04452H11.2217V12.0588V19.5588V23.0588V27.0588C11.2217 28.6902 11.2217 29.5588 11.2217 30.0588C11.2217 30.0588 10.9545 30.0588 10.7217 30.0588C10.0513 30.0588 10.2217 30.0588 8.72166 30.0588C7.79115 30.0588 6.79451 30.0588 5.65341 30.0588C4.51231 30.0588 3.51799 30.0331 2.67045 29.5881C1.82292 29.1383 1.16477 28.5251 0.696023 27.7486C0.232007 26.9673 0 26.0795 0 25.0852L5.74096e-06 4.04452H1.76137L1.76136 24.9432C1.76136 25.6534 1.91761 26.2855 2.23011 26.8395C2.54261 27.3887 2.98769 27.822 3.56534 28.1392C4.14773 28.4517 4.84375 28.608 5.65341 28.608C6.46307 28.608 7.15909 28.4517 7.74148 28.1392C8.32386 27.822 8.76894 27.3887 9.0767 26.8395C9.3892 26.2855 9.54545 25.6534 9.54545 24.9432V4.04452Z" fill="#4653ED"/>
<path d="M12.7901 30.0455L11.2217 30.0588L16.2844 16H18.1026L23.1134 29.9752L21.5969 30.0455L17.2503 17.8011H17.1367L12.7901 30.0455ZM13.4719 24.3636H20.9151V25.9261H13.4719V24.3636Z" fill="#4653ED"/>
<path d="M23.1134 29.9752V16H24.7896V20.5718H24.9316C25.0547 20.3824 25.2252 20.1409 25.443 19.8474C25.6655 19.5491 25.9828 19.2839 26.3947 19.0519C26.8114 18.8152 27.3748 18.6968 28.085 18.6968C29.0036 18.6968 29.8133 18.9265 30.514 19.3857C31.2148 19.845 31.7617 20.4961 32.1547 21.3389C32.4737 22.0231 32.3479 23.1476 32.3479 24.2934C32.3479 25.4487 32.5477 26.4833 32.1547 27.3261C31.7617 28.1689 31.2171 28.8223 30.5211 29.2863C29.8251 29.7456 29.0225 29.9752 28.1134 29.9752C27.4127 29.9752 26.8516 29.8592 26.4302 29.6272C26.0088 29.3905 25.6845 29.1229 25.4572 28.8246C25.2299 28.5216 25.0547 28.2707 24.9316 28.0718H24.7328L24.7217 30L23.1134 29.9752ZM24.7612 24.2934C24.7612 25.1173 24.8819 25.8441 25.1234 26.4738C25.3649 27.0988 25.7176 27.5889 26.1816 27.944C26.6456 28.2943 27.2138 28.4695 27.8862 28.4695C28.5869 28.4695 29.1717 28.2849 29.6404 27.9156C30.1139 27.5415 30.469 27.0396 30.7058 26.4099C30.9473 25.7754 31.068 25.0699 31.068 24.2934C31.068 23.5264 30.9496 22.8351 30.7129 22.2195C30.4809 21.5993 30.1281 21.1092 29.6546 20.7494C29.1859 20.3848 28.5964 20.2025 27.8862 20.2025C27.2043 20.2025 26.6314 20.3753 26.1674 20.721C25.7034 21.0619 25.353 21.5401 25.1163 22.1556C24.8795 22.7664 24.7612 23.479 24.7612 24.2934Z" fill="#4653ED"/>
<path d="M36.6429 29.9752C35.7338 29.9752 34.9313 29.7456 34.2352 29.2863C33.5392 28.8223 32.9947 28.1689 32.6017 27.3261C32.2465 26.7479 32.3479 25.4487 32.3479 24.2934C32.3479 23.1476 32.2465 22.2479 32.6017 21.3389C32.9947 20.4961 33.5416 19.845 34.2423 19.3857C34.9431 18.9264 35.7528 18.6968 36.6713 18.6968C37.3816 18.6968 37.9426 18.8152 38.3546 19.0519C38.7712 19.2839 39.0885 19.5491 39.3063 19.8474C39.5288 20.1409 39.7016 20.3824 39.8247 20.5718H39.9668V16H41.6429V29.9752L40 30L40.0236 28.0718H39.8247C39.7016 28.2707 39.5264 28.5216 39.2992 28.8246C39.0719 29.1229 38.7476 29.3905 38.3262 29.6272C37.9048 29.8592 37.3437 29.9752 36.6429 29.9752ZM36.8702 28.4695C37.5425 28.4695 38.1107 28.2943 38.5747 27.944C39.0388 27.5888 39.3915 27.0988 39.633 26.4738C39.8744 25.8441 39.9952 25.1173 39.9952 24.2934C39.9952 23.479 39.8768 22.7664 39.6401 22.1556C39.4033 21.5401 39.053 21.0619 38.5889 20.721C38.1249 20.3753 37.552 20.2025 36.8702 20.2025C36.16 20.2025 35.5681 20.3848 35.0946 20.7494C34.6259 21.1092 34.2731 21.5993 34.0364 22.2195C33.8044 22.8351 33.6884 23.5264 33.6884 24.2934C33.6884 25.0699 33.8067 25.7754 34.0435 26.4099C34.285 27.0396 34.6401 27.5415 35.1088 27.9156C35.5823 28.2849 36.1694 28.4695 36.8702 28.4695Z" fill="#4653ED"/>
<path d="M46.4432 30C45.4583 30 44.5942 29.7656 43.8508 29.2969C43.1122 28.8281 42.5346 28.1724 42.1179 27.3295C41.706 26.4867 41.5 25.5019 41.5 24.375C41.5 23.2386 41.706 22.2467 42.1179 21.3992C42.5346 20.5516 43.1122 19.8935 43.8508 19.4247C44.5942 18.956 45.5638 18.9431 46.4432 18.9431C47.428 18.9431 50.5993 19 51.4218 19C51.4331 20.0444 51.4595 20.7226 51.4595 21.6076C51.4595 22.5826 51.48 22.9816 51.48 24.375C51.48 25.5019 51.178 26.4867 50.7614 27.3295C50.3494 28.1724 49.7718 28.8281 49.0284 29.2969C48.2898 29.7656 47.428 30 46.4432 30ZM46.4432 28.4943C47.1913 28.4943 47.8068 28.3026 48.2898 27.919C48.7727 27.5355 49.1302 27.0313 49.3622 26.4062C49.5942 25.7812 49.7102 25.1042 49.7102 24.375C49.7102 23.6458 49.5942 22.9664 49.3622 22.3367C49.1302 21.7069 48.7727 21.1979 48.2898 20.8097C47.8068 20.4214 47.1913 20.2273 46.4432 20.2273C45.6951 20.2273 45.0795 20.4214 44.5966 20.8097C44.1136 21.1979 43.7561 21.7069 43.5241 22.3367C43.2921 22.9664 43.1761 23.6458 43.1761 24.375C43.1761 25.1042 43.2921 25.7812 43.5241 26.4062C43.7561 27.0313 44.1136 27.5355 44.5966 27.919C45.0795 28.3026 45.6951 28.4943 46.4432 28.4943Z" fill="#4653ED"/>
<path d="M58.355 25.3977V18.9489H60.0311V30H59.1574H58.355V28.0114H58.2413C57.9856 28.5653 57.5879 29.0365 57.0481 29.4247C56.5084 29.8082 55.8266 30 55.0027 30C54.3209 30 53.7148 29.8509 53.1845 29.5526C52.6542 29.2495 52.2375 28.795 51.9345 28.1889C51.6315 27.5781 51.48 26.8087 51.48 25.8807L51.4595 22.5L51.4407 20.75L51.4312 19.875L51.4218 19H52.1574H53.1561V25.767C53.1561 26.5625 53.3786 27.197 53.8237 27.6705C54.2735 28.1439 54.8464 28.3807 55.5425 28.3807C55.9591 28.3807 56.3829 28.2741 56.8138 28.0611C57.2494 27.848 57.6139 27.5213 57.9075 27.081C58.2058 26.6406 58.355 26.0796 58.355 25.3977Z" fill="#4653ED"/>
<path d="M63.9017 21.1951V30H62.2257V21.1951H63.9017Z" fill="#4653ED"/>
<path d="M26.7248 15V4.09091H28.3441V5.79545H28.4862C28.7134 5.21307 29.0804 4.76089 29.587 4.43892C30.0936 4.11222 30.7021 3.94886 31.4123 3.94886C32.132 3.94886 32.731 4.11222 33.2092 4.43892C33.6922 4.76089 34.0686 5.21307 34.3385 5.79545H34.4521C34.7315 5.23201 35.1505 4.78456 35.7092 4.45313C36.2679 4.11695 36.9379 3.94886 37.7191 3.94886C38.6945 3.94886 39.4923 4.25426 40.1126 4.86506C40.7329 5.47112 41.043 6.41572 41.043 7.69887V15H39.3669V7.69887C39.3669 6.89394 39.1467 6.31866 38.7064 5.97301C38.266 5.62737 37.7476 5.45455 37.151 5.45455C36.3839 5.45455 35.7897 5.68655 35.3683 6.15057C34.9469 6.60985 34.7362 7.19224 34.7362 7.89773V15H33.0316V7.52841C33.0316 6.90815 32.8304 6.40862 32.4279 6.02983C32.0255 5.64631 31.507 5.45455 30.8725 5.45455C30.4369 5.45455 30.0297 5.57055 29.6509 5.80256C29.2769 6.03456 28.9738 6.35654 28.7418 6.76847C28.5146 7.17566 28.4009 7.64678 28.4009 8.18182V15H26.7248Z" fill="#4653ED"/>
<path d="M44.7143 15.0001C44.023 15.0001 43.3956 14.8699 42.8322 14.6095C42.2687 14.3443 41.8213 13.9631 41.4898 13.466C41.1584 12.9641 40.9927 12.358 40.9927 11.6478C40.9927 11.0228 41.1158 10.5162 41.362 10.1279C41.6082 9.73493 41.9373 9.42716 42.3492 9.20463C42.7611 8.98209 43.2157 8.81637 43.7128 8.70747C44.2147 8.59383 44.719 8.50387 45.2256 8.43758C45.8885 8.35235 46.4259 8.28843 46.8378 8.24582C47.2545 8.19847 47.5575 8.12034 47.7469 8.01144C47.9411 7.90254 48.0381 7.71315 48.0381 7.44326V7.38644C48.0381 6.68568 47.8464 6.14117 47.4628 5.75292C47.084 5.36466 46.5088 5.17053 45.737 5.17053C44.9368 5.17053 44.3094 5.34572 43.8549 5.6961C43.4003 6.04648 43.0807 6.42053 42.8961 6.81826L41.3052 6.25008C41.5893 5.5872 41.968 5.0711 42.4415 4.70178C42.9197 4.32773 43.4406 4.06731 44.004 3.92053C44.5722 3.76901 45.1309 3.69326 45.6802 3.69326C46.0305 3.69326 46.433 3.73587 46.8876 3.8211C47.3468 3.90159 47.7895 4.06968 48.2157 4.32536C48.6465 4.58104 49.004 4.96693 49.2881 5.48303C49.5722 5.99913 49.7143 6.69042 49.7143 7.5569V14.7444H48.0381V13.2671C47.9245 13.5039 47.6499 13.7572 47.3847 14.0271C47.1196 14.297 46.7668 14.5266 46.3265 14.716C45.8861 14.9054 45.3487 15.0001 44.7143 15.0001ZM44.9699 13.4944C45.6328 13.4944 46.1915 13.3642 46.6461 13.1038C47.1054 12.8434 47.451 12.5072 47.683 12.0953C47.9197 11.6833 48.0381 11.2501 48.0381 10.7955V9.26144C47.9671 9.34667 47.8109 9.4248 47.5694 9.49582C47.3326 9.56211 47.058 9.62129 46.7455 9.67338C46.4377 9.72072 46.1371 9.76334 45.8435 9.80122C45.5547 9.83436 45.3203 9.86277 45.1404 9.88644C44.7048 9.94326 44.2976 10.0356 43.9188 10.1634C43.5447 10.2865 43.2417 10.4736 43.0097 10.7245C42.7824 10.9707 42.6688 11.3069 42.6688 11.733C42.6688 12.3154 42.8842 12.7558 43.3151 13.0541C43.7507 13.3476 44.3023 13.4944 44.9699 13.4944Z" fill="#4653ED"/>
<path d="M48.0381 15V4.0909H49.7143V15H48.0381ZM48.8904 2.27272C48.5637 2.27272 48.282 2.16145 48.0452 1.93891C47.8132 1.71638 47.6972 1.44886 47.6972 1.13636C47.6972 0.823858 47.8132 0.556339 48.0452 0.333801C48.282 0.111263 48.5637 -5.28991e-06 48.8904 -5.28991e-06C49.2171 -5.28991e-06 49.4965 0.111263 49.7285 0.333801C49.9652 0.556339 50.0836 0.823858 50.0836 1.13636C50.0836 1.44886 49.9652 1.71638 49.7285 1.93891C49.4965 2.16145 49.2171 2.27272 48.8904 2.27272Z" fill="#4653ED"/>
<path d="M53.1561 0.454659V15.0001H51.48V0.454659H53.1561Z" fill="#4653ED"/>
<path d="M58.9018 14.9962C58.2105 14.9962 57.5832 14.866 57.0197 14.6056C56.4563 14.3405 56.0088 13.9593 55.6774 13.4621C55.346 12.9602 55.1803 12.3542 55.1803 11.644C55.1803 11.019 55.3033 10.5123 55.5496 10.1241C55.7958 9.73108 56.1248 9.42331 56.5368 9.20078C56.9487 8.97824 57.4033 8.81252 57.9004 8.70362C58.4023 8.58998 58.9066 8.50002 59.4132 8.43373C60.0761 8.3485 60.6135 8.28458 61.0254 8.24197C61.4421 8.19462 61.7451 8.11649 61.9345 8.00759C62.1286 7.89869 62.2257 7.7093 62.2257 7.43941V7.38259C62.2257 6.68184 62.0339 6.13732 61.6504 5.74907C61.2716 5.36081 60.6963 5.16668 59.9246 5.16668C59.1244 5.16668 58.497 5.34187 58.0425 5.69225C57.5879 6.04263 57.2683 6.41668 57.0836 6.81441L55.4928 6.24623C55.7768 5.58335 56.1556 5.06725 56.6291 4.69793C57.1073 4.32388 57.6282 4.06346 58.1916 3.91668C58.7598 3.76517 59.3185 3.68941 59.8677 3.68941C60.2181 3.68941 60.6206 3.73202 61.0751 3.81725C61.5344 3.89774 61.9771 4.06583 62.4032 4.32151C62.8341 4.57719 63.1915 4.96308 63.4756 5.47918C63.7597 5.99528 63.9017 6.68657 63.9017 7.55305V21.1951H62.2257L62.2257 13.2633H62.1404C62.0268 13.5 61.8374 13.7533 61.5723 14.0232C61.3071 14.2931 60.9544 14.5227 60.514 14.7121C60.0737 14.9015 59.5363 14.9962 58.9018 14.9962ZM59.1575 13.4905C59.8204 13.4905 60.3791 13.3603 60.8336 13.0999C61.2929 12.8395 61.6386 12.5033 61.8706 12.0914C62.1073 11.6795 62.2257 11.2462 62.2257 10.7917V9.25759C62.1546 9.34282 61.9984 9.42095 61.7569 9.49197C61.5202 9.55826 61.2456 9.61744 60.9331 9.66953C60.6253 9.71687 60.3247 9.75949 60.0311 9.79737C59.7423 9.83051 59.5079 9.85892 59.328 9.88259C58.8924 9.93941 58.4852 10.0317 58.1064 10.1596C57.7323 10.2827 57.4293 10.4697 57.1973 10.7207C56.97 10.9669 56.8564 11.303 56.8564 11.7292C56.8564 12.3116 57.0718 12.7519 57.5027 13.0502C57.9383 13.3438 58.4899 13.4905 59.1575 13.4905Z" fill="#4653ED"/>
<path d="M26.5952 6.58523L25.0895 7.01136C24.9948 6.76042 24.8551 6.51657 24.6705 6.27983C24.4905 6.03835 24.2443 5.83949 23.9318 5.68324C23.6193 5.52699 23.2192 5.44886 22.7315 5.44886C22.0639 5.44886 21.5076 5.60275 21.0625 5.91051C20.6222 6.21354 20.402 6.59943 20.402 7.06818C20.402 7.48485 20.5535 7.81392 20.8565 8.0554C21.1596 8.29687 21.633 8.49811 22.277 8.65909L23.8963 9.05682C24.8717 9.29356 25.5985 9.65578 26.0767 10.1435C26.5549 10.6264 26.794 11.2491 26.794 12.0114C26.794 12.6364 26.6141 13.1951 26.2543 13.6875C25.8991 14.1799 25.402 14.5682 24.7628 14.8523C24.1236 15.1364 23.3802 15.2784 22.5327 15.2784C21.42 15.2784 20.4991 15.0369 19.7699 14.554C19.0407 14.071 18.5791 13.3655 18.3849 12.4375L19.9759 12.0398C20.1274 12.6269 20.4138 13.0672 20.8352 13.3608C21.2614 13.6544 21.8177 13.8011 22.5043 13.8011C23.2855 13.8011 23.9058 13.6354 24.3651 13.304C24.8291 12.9678 25.0611 12.5653 25.0611 12.0966C25.0611 11.7178 24.9285 11.4006 24.6634 11.1449C24.3982 10.8845 23.991 10.6903 23.4418 10.5625L21.6236 10.1364C20.6245 9.89962 19.8906 9.53267 19.4219 9.03551C18.9579 8.53362 18.7259 7.90625 18.7259 7.15341C18.7259 6.53788 18.8987 5.99337 19.2443 5.51989C19.5947 5.0464 20.0705 4.67472 20.6719 4.40483C21.2779 4.13494 21.9645 4 22.7315 4C23.8111 4 24.6586 4.23674 25.2741 4.71023C25.8944 5.18371 26.3348 5.80871 26.5952 6.58523Z" fill="#4653ED"/>
</svg>
